<svg width="2673" height="1281" xmlns="http://www.w3.org/2000/svg" xmlns:xlink="http://www.w3.org/1999/xlink" overflow="hidden"><defs><clipPath id="clip0"><rect x="1909" y="207" width="2673" height="1281"/></clipPath><clipPath id="clip1"><rect x="1909" y="207" width="2670" height="1278"/></clipPath><clipPath id="clip2"><rect x="2191" y="258" width="2341" height="873"/></clipPath><clipPath id="clip3"><rect x="1909" y="207" width="2670" height="1278"/></clipPath><clipPath id="clip4"><rect x="1909" y="207" width="2670" height="1278"/></clipPath><clipPath id="clip5"><rect x="1909" y="207" width="2670" height="1278"/></clipPath><clipPath id="clip6"><rect x="1909" y="207" width="2670" height="1278"/></clipPath><clipPath id="clip7"><rect x="1909" y="207" width="2670" height="1278"/></clipPath><clipPath id="clip8"><rect x="1909" y="207" width="2670" height="1278"/></clipPath><clipPath id="clip9"><rect x="1909" y="207" width="2670" height="1278"/></clipPath><clipPath id="clip10"><rect x="1909" y="207" width="2670" height="1278"/></clipPath><clipPath id="clip11"><rect x="1909" y="207" width="2670" height="1278"/></clipPath><clipPath id="clip12"><rect x="1909" y="207" width="2670" height="1278"/></clipPath><clipPath id="clip13"><rect x="1909" y="207" width="2670" height="1278"/></clipPath><clipPath id="clip14"><rect x="1909" y="207" width="2670" height="1278"/></clipPath><clipPath id="clip15"><rect x="1909" y="207" width="2670" height="1278"/></clipPath><clipPath id="clip16"><rect x="1909" y="207" width="2670" height="1278"/></clipPath><clipPath id="clip17"><rect x="1909" y="207" width="2670" height="1278"/></clipPath><clipPath id="clip18"><rect x="1909" y="207" width="2670" height="1278"/></clipPath><clipPath id="clip19"><rect x="1909" y="207" width="2670" height="1278"/></clipPath><clipPath id="clip20"><rect x="1909" y="207" width="2670" height="1278"/></clipPath><clipPath id="clip21"><rect x="1909" y="207" width="2670" height="1278"/></clipPath><clipPath id="clip22"><rect x="1909" y="207" width="2670" height="1278"/></clipPath><clipPath id="clip23"><rect x="1909" y="207" width="2670" height="1278"/></clipPath><clipPath id="clip24"><rect x="1909" y="207" width="2670" height="1278"/></clipPath><clipPath id="clip25"><rect x="1909" y="207" width="2670" height="1278"/></clipPath><clipPath id="clip26"><rect x="1909" y="207" width="2670" height="1278"/></clipPath><clipPath id="clip27"><rect x="1909" y="207" width="2670" height="1278"/></clipPath><clipPath id="clip28"><rect x="1909" y="207" width="2670" height="1278"/></clipPath><clipPath id="clip29"><rect x="1909" y="207" width="2670" height="1278"/></clipPath><clipPath id="clip30"><rect x="1909" y="207" width="2670" height="1278"/></clipPath><clipPath id="clip31"><rect x="1909" y="207" width="2670" height="1278"/></clipPath><clipPath id="clip32"><rect x="1909" y="207" width="2670" height="1278"/></clipPath><clipPath id="clip33"><rect x="1909" y="207" width="2670" height="1278"/></clipPath><clipPath id="clip34"><rect x="1909" y="207" width="2670" height="1278"/></clipPath><clipPath id="clip35"><rect x="1909" y="207" width="2670" height="1278"/></clipPath><clipPath id="clip36"><rect x="1909" y="207" width="2670" height="1278"/></clipPath><clipPath id="clip37"><rect x="1909" y="207" width="2670" height="1278"/></clipPath><clipPath id="clip38"><rect x="1909" y="207" width="2670" height="1278"/></clipPath><clipPath id="clip39"><rect x="1909" y="207" width="2670" height="1278"/></clipPath><clipPath id="clip40"><rect x="1909" y="207" width="2670" height="1278"/></clipPath><clipPath id="clip41"><rect x="1909" y="207" width="2670" height="1278"/></clipPath><clipPath id="clip42"><rect x="1909" y="207" width="2670" height="1278"/></clipPath><clipPath id="clip43"><rect x="1909" y="207" width="2670" height="1278"/></clipPath><clipPath id="clip44"><rect x="1909" y="207" width="2670" height="1278"/></clipPath><clipPath id="clip45"><rect x="1909" y="207" width="2670" height="1278"/></clipPath></defs><g clip-path="url(#clip0)" transform="translate(-1909 -207)"><rect x="1910" y="208" width="2670" height="1278" fill="#FFFFFF"/><g clip-path="url(#clip1)"><path d="M2191.5 1031.53 4529.5 1031.53M2191.5 934.531 4529.5 934.531M2191.5 838.528 4529.5 838.528M2191.5 741.525 4529.5 741.525M2191.5 644.521 4529.5 644.521M2191.5 548.518 4529.5 548.518M2191.5 451.515 4529.5 451.515M2191.5 354.512 4529.5 354.512M2191.5 258.5 4529.5 258.5" stroke="#D9D9D9" stroke-width="3.4375" stroke-linejoin="round" stroke-miterlimit="10" fill="none"/></g><g clip-path="url(#clip2)"><path d="M2196.07 331.011 2343.08 331.011 2343.08 1128 2196.07 1128ZM2352.08 445.015 2499.08 445.015 2499.08 1128 2352.08 1128ZM2507.08 546.018 2654.09 546.018 2654.09 1128 2507.08 1128ZM2663.09 598.02 2810.09 598.02 2810.09 1128 2663.09 1128ZM2819.09 644.021 2966.1 644.021 2966.1 1128 2819.09 1128ZM2975.1 674.022 3122.1 674.022 3122.1 1128 2975.1 1128ZM3131.1 722.024 3278.11 722.024 3278.11 1128 3131.1 1128ZM3287.11 758.025 3434.11 758.025 3434.11 1128 3287.11 1128ZM3442.11 783.026 3589.12 783.026 3589.12 1128 3442.11 1128ZM3598.12 825.027 3745.12 825.027 3745.12 1128 3598.12 1128ZM3754.12 867.028 3901.13 867.028 3901.13 1128 3754.12 1128ZM3910.13 896.029 4057.13 896.029 4057.13 1128 3910.13 1128ZM4066.13 904.03 4213.14 904.03 4213.14 1128 4066.13 1128ZM4222.14 937.031 4369.14 937.031 4369.14 1128 4222.14 1128ZM4378.14 951.031 4525.15 951.031 4525.15 1128 4378.14 1128Z" fill="#4472C4"/></g><g clip-path="url(#clip3)"><path d="M2191.5 1128.5 4529.5 1128.5" stroke="#D9D9D9" stroke-width="3.4375" stroke-linejoin="round" stroke-miterlimit="10" fill="none" fill-rule="evenodd"/></g><g clip-path="url(#clip4)"><text fill="#FFFFFF" font-family="Verdana,Verdana_MSFontService,sans-serif" font-weight="400" font-size="46" transform="matrix(1 0 0 1 2211.04 397)">1650</text></g><g clip-path="url(#clip5)"><text fill="#FFFFFF" font-family="Verdana,Verdana_MSFontService,sans-serif" font-weight="400" font-size="46" transform="matrix(1 0 0 1 2366.89 512)">1413</text></g><g clip-path="url(#clip6)"><text fill="#FFFFFF" font-family="Verdana,Verdana_MSFontService,sans-serif" font-weight="400" font-size="46" transform="matrix(1 0 0 1 2522.74 612)">1205</text></g><g clip-path="url(#clip7)"><text fill="#FFFFFF" font-family="Verdana,Verdana_MSFontService,sans-serif" font-weight="400" font-size="46" transform="matrix(1 0 0 1 2678.59 665)">1097</text></g><g clip-path="url(#clip8)"><text fill="#FFFFFF" font-family="Verdana,Verdana_MSFontService,sans-serif" font-weight="400" font-size="46" transform="matrix(1 0 0 1 2834.44 710)">1002</text></g><g clip-path="url(#clip9)"><text fill="#FFFFFF" font-family="Verdana,Verdana_MSFontService,sans-serif" font-weight="400" font-size="46" transform="matrix(1 0 0 1 3004.85 740)">940</text></g><g clip-path="url(#clip10)"><text fill="#FFFFFF" font-family="Verdana,Verdana_MSFontService,sans-serif" font-weight="400" font-size="46" transform="matrix(1 0 0 1 3160.7 789)">840</text></g><g clip-path="url(#clip11)"><text fill="#FFFFFF" font-family="Verdana,Verdana_MSFontService,sans-serif" font-weight="400" font-size="46" transform="matrix(1 0 0 1 3316.55 825)">766</text></g><g clip-path="url(#clip12)"><text fill="#FFFFFF" font-family="Verdana,Verdana_MSFontService,sans-serif" font-weight="400" font-size="46" transform="matrix(1 0 0 1 3472.39 849)">715</text></g><g clip-path="url(#clip13)"><text fill="#FFFFFF" font-family="Verdana,Verdana_MSFontService,sans-serif" font-weight="400" font-size="46" transform="matrix(1 0 0 1 3628.24 892)">627</text></g><g clip-path="url(#clip14)"><text fill="#FFFFFF" font-family="Verdana,Verdana_MSFontService,sans-serif" font-weight="400" font-size="46" transform="matrix(1 0 0 1 3784.09 933)">541</text></g><g clip-path="url(#clip15)"><text fill="#FFFFFF" font-family="Verdana,Verdana_MSFontService,sans-serif" font-weight="400" font-size="46" transform="matrix(1 0 0 1 3939.94 962)">481</text></g><g clip-path="url(#clip16)"><text fill="#FFFFFF" font-family="Verdana,Verdana_MSFontService,sans-serif" font-weight="400" font-size="46" transform="matrix(1 0 0 1 4095.79 971)">464</text></g><g clip-path="url(#clip17)"><text fill="#FFFFFF" font-family="Verdana,Verdana_MSFontService,sans-serif" font-weight="400" font-size="46" transform="matrix(1 0 0 1 4251.63 1003)">396</text></g><g clip-path="url(#clip18)"><text fill="#FFFFFF" font-family="Verdana,Verdana_MSFontService,sans-serif" font-weight="400" font-size="46" transform="matrix(1 0 0 1 4407.48 1018)">366</text></g><g clip-path="url(#clip19)"><text fill="#595959" font-family="Verdana,Verdana_MSFontService,sans-serif" font-weight="400" font-size="41" transform="matrix(1 0 0 1 2126.26 1142)">0</text></g><g clip-path="url(#clip20)"><text fill="#595959" font-family="Verdana,Verdana_MSFontService,sans-serif" font-weight="400" font-size="41" transform="matrix(1 0 0 1 2073.83 1045)">200</text></g><g clip-path="url(#clip21)"><text fill="#595959" font-family="Verdana,Verdana_MSFontService,sans-serif" font-weight="400" font-size="41" transform="matrix(1 0 0 1 2073.83 949)">400</text></g><g clip-path="url(#clip22)"><text fill="#595959" font-family="Verdana,Verdana_MSFontService,sans-serif" font-weight="400" font-size="41" transform="matrix(1 0 0 1 2073.83 852)">600</text></g><g clip-path="url(#clip23)"><text fill="#595959" font-family="Verdana,Verdana_MSFontService,sans-serif" font-weight="400" font-size="41" transform="matrix(1 0 0 1 2073.83 755)">800</text></g><g clip-path="url(#clip24)"><text fill="#595959" font-family="Verdana,Verdana_MSFontService,sans-serif" font-weight="400" font-size="41" transform="matrix(1 0 0 1 2047.61 659)">1000</text></g><g clip-path="url(#clip25)"><text fill="#595959" font-family="Verdana,Verdana_MSFontService,sans-serif" font-weight="400" font-size="41" transform="matrix(1 0 0 1 2047.61 562)">1200</text></g><g clip-path="url(#clip26)"><text fill="#595959" font-family="Verdana,Verdana_MSFontService,sans-serif" font-weight="400" font-size="41" transform="matrix(1 0 0 1 2047.61 465)">1400</text></g><g clip-path="url(#clip27)"><text fill="#595959" font-family="Verdana,Verdana_MSFontService,sans-serif" font-weight="400" font-size="41" transform="matrix(1 0 0 1 2047.61 369)">1600</text></g><g clip-path="url(#clip28)"><text fill="#595959" font-family="Verdana,Verdana_MSFontService,sans-serif" font-weight="400" font-size="41" transform="matrix(1 0 0 1 2047.61 272)">1800</text></g><g clip-path="url(#clip29)"><text fill="#595959" font-family="Verdana,Verdana_MSFontService,sans-serif" font-weight="400" font-size="41" transform="matrix(0.707107 -0.707107 0.707107 0.707107 2208.02 1257)">delta</text></g><g clip-path="url(#clip30)"><text fill="#595959" font-family="Verdana,Verdana_MSFontService,sans-serif" font-weight="400" font-size="41" transform="matrix(0.707107 -0.707107 0.707107 0.707107 2364.59 1257)">flood</text></g><g clip-path="url(#clip31)"><text fill="#595959" font-family="Verdana,Verdana_MSFontService,sans-serif" font-weight="400" font-size="41" transform="matrix(0.707107 -0.707107 0.707107 0.707107 2480.35 1297)">glaciers</text></g><g clip-path="url(#clip32)"><text fill="#595959" font-family="Verdana,Verdana_MSFontService,sans-serif" font-weight="400" font-size="41" transform="matrix(0.707107 -0.707107 0.707107 0.707107 2658.61 1274)">rapids</text></g><g clip-path="url(#clip33)"><text fill="#595959" font-family="Verdana,Verdana_MSFontService,sans-serif" font-weight="400" font-size="41" transform="matrix(0.707107 -0.707107 0.707107 0.707107 2747.34 1341)">hot_spring</text></g><g clip-path="url(#clip34)"><text fill="#595959" font-family="Verdana,Verdana_MSFontService,sans-serif" font-weight="400" font-size="41" transform="matrix(0.707107 -0.707107 0.707107 0.707107 2956.68 1288)">swamp</text></g><g clip-path="url(#clip35)"><text fill="#595959" font-family="Verdana,Verdana_MSFontService,sans-serif" font-weight="400" font-size="41" transform="matrix(0.707107 -0.707107 0.707107 0.707107 3117.32 1283)">puddle</text></g><g clip-path="url(#clip36)"><text fill="#595959" font-family="Verdana,Verdana_MSFontService,sans-serif" font-weight="400" font-size="41" transform="matrix(0.707107 -0.707107 0.707107 0.707107 3311.35 1245)">lake</text></g><g clip-path="url(#clip37)"><text fill="#595959" font-family="Verdana,Verdana_MSFontService,sans-serif" font-weight="400" font-size="41" transform="matrix(0.707107 -0.707107 0.707107 0.707107 3452.13 1260)">snow</text></g><g clip-path="url(#clip38)"><text fill="#595959" font-family="Verdana,Verdana_MSFontService,sans-serif" font-weight="400" font-size="41" transform="matrix(0.707107 -0.707107 0.707107 0.707107 3573.46 1295)">estuary</text></g><g clip-path="url(#clip39)"><text fill="#595959" font-family="Verdana,Verdana_MSFontService,sans-serif" font-weight="400" font-size="41" transform="matrix(0.707107 -0.707107 0.707107 0.707107 3788.96 1235)">sea</text></g><g clip-path="url(#clip40)"><text fill="#595959" font-family="Verdana,Verdana_MSFontService,sans-serif" font-weight="400" font-size="41" transform="matrix(0.707107 -0.707107 0.707107 0.707107 3868.42 1311)">waterfall</text></g><g clip-path="url(#clip41)"><text fill="#595959" font-family="Verdana,Verdana_MSFontService,sans-serif" font-weight="400" font-size="41" transform="matrix(0.707107 -0.707107 0.707107 0.707107 4035.87 1300)">wetland</text></g><g clip-path="url(#clip42)"><text fill="#595959" font-family="Verdana,Verdana_MSFontService,sans-serif" font-weight="400" font-size="41" transform="matrix(0.707107 -0.707107 0.707107 0.707107 4245.03 1246)">pool</text></g><g clip-path="url(#clip43)"><text fill="#595959" font-family="Verdana,Verdana_MSFontService,sans-serif" font-weight="400" font-size="41" transform="matrix(0.707107 -0.707107 0.707107 0.707107 4394.91 1252)">river</text></g><g clip-path="url(#clip44)"><text fill="#595959" font-family="Verdana,Verdana_MSFontService,sans-serif" font-weight="400" font-size="55" transform="matrix(6.12323e-17 -1 1 6.12323e-17 2022.01 955)">Number of Patches</text></g><g clip-path="url(#clip45)"><text fill="#595959" font-family="Verdana,Verdana_MSFontService,sans-serif" font-weight="400" font-size="55" transform="matrix(1 0 0 1 3196.95 1417)">ATeX Labels</text></g><rect x="1910.5" y="208.5" width="2670" height="1278" stroke="#D9D9D9" stroke-width="3.4375" stroke-linejoin="round" stroke-miterlimit="10" fill="none"/></g></svg>